<svg width="40" height="40" viewBox="0 0 40 40" fill="none" xmlns="http://www.w3.org/2000/svg">
<rect width="40" height="40" rx="8" fill="#FFF6EE"/>
<path fill-rule="evenodd" clip-rule="evenodd" d="M26 11H14C11.7909 11 10 12.7909 10 15C10 16.6787 11.0341 18.1159 12.5 18.7092V15C12.5 14.6022 12.658 14.2206 12.9393 13.9393C13.2206 13.658 13.6022 13.5 14 13.5H26C26.3978 13.5 26.7794 13.658 27.0607 13.9393C27.342 14.2206 27.5 14.6022 27.5 15V18.7092C28.9659 18.1159 30 16.6787 30 15C30 12.7909 28.2091 11 26 11ZM26 27L26 15H14V27C14 28.1046 14.8954 29 16 29H24C25.1046 29 26 28.1046 26 27ZM19.25 23.1895L18.5303 22.4698C18.2374 22.1769 17.7626 22.1769 17.4697 22.4698C17.1768 22.7627 17.1768 23.2376 17.4697 23.5305L18.7626 24.8234C19.446 25.5068 20.554 25.5068 21.2374 24.8234L22.5303 23.5305C22.8232 23.2376 22.8232 22.7627 22.5303 22.4698C22.2374 22.1769 21.7626 22.1769 21.4697 22.4698L20.75 23.1895V19.0002C20.75 18.5859 20.4142 18.2502 20 18.2502C19.5858 18.2502 19.25 18.5859 19.25 19.0002V23.1895Z" fill="#FFB26A"/>
</svg>
