<svg width="40" height="40" viewBox="0 0 40 40" fill="none" xmlns="http://www.w3.org/2000/svg">
<rect width="40" height="40" rx="8" fill="#E9FBFF"/>
<path fill-rule="evenodd" clip-rule="evenodd" d="M14 12H26C28.2091 12 30 13.7909 30 16V21C30 21.5523 29.5523 22 29 22H26C23.7909 22 22 23.7909 22 26V27C22 27.5523 21.5523 28 21 28H14C11.7909 28 10 26.2091 10 24V16C10 13.7909 11.7909 12 14 12ZM14 15C14.5523 15 15 15.4477 15 16C15 16.5523 14.5523 17 14 17C13.4477 17 13 16.5523 13 16C13 15.4477 13.4477 15 14 15ZM22 20C22 18.8954 21.1046 18 20 18C18.8954 18 18 18.8954 18 20C18 21.1046 18.8954 22 20 22C21.1046 22 22 21.1046 22 20ZM27.75 24C27.75 23.5858 27.4142 23.25 27 23.25C26.5858 23.25 26.25 23.5858 26.25 24V25.25H25C24.5858 25.25 24.25 25.5858 24.25 26C24.25 26.4142 24.5858 26.75 25 26.75H26.25V28C26.25 28.4142 26.5858 28.75 27 28.75C27.4142 28.75 27.75 28.4142 27.75 28V26.75H29C29.4142 26.75 29.75 26.4142 29.75 26C29.75 25.5858 29.4142 25.25 29 25.25H27.75V24Z" fill="#72DEF6"/>
</svg>
